<svg width="28" height="28" viewBox="0 0 28 28" fill="none" xmlns="http://www.w3.org/2000/svg">
<path d="M18.888 2.33325H9.11134C4.86467 2.33325 2.33301 4.86492 2.33301 9.11159V18.8766C2.33301 23.1349 4.86467 25.6666 9.11134 25.6666H18.8763C23.123 25.6666 25.6547 23.1349 25.6547 18.8883V9.11159C25.6663 4.86492 23.1347 2.33325 18.888 2.33325ZM19.5763 11.3166L12.9613 17.9316C12.7973 18.0954 12.5749 18.1875 12.343 18.1875C12.1111 18.1875 11.8887 18.0954 11.7247 17.9316L8.42301 14.6299C8.26028 14.4653 8.16902 14.2431 8.16902 14.0116C8.16902 13.7801 8.26028 13.5579 8.42301 13.3933C8.76134 13.0549 9.32134 13.0549 9.65967 13.3933L12.343 16.0766L18.3397 10.0799C18.678 9.74159 19.238 9.74159 19.5763 10.0799C19.9147 10.4183 19.9147 10.9666 19.5763 11.3166Z" fill="#4AD260"/>
</svg>
