<svg width="317" height="68" viewBox="0 0 317 68" fill="none" xmlns="http://www.w3.org/2000/svg">
<g clip-path="url(#clip0_65_32)">
<path d="M42.1544 0H6.19633C3.05034 0 0.5 2.56376 0.5 5.72632C0.5 8.88887 3.05034 11.4526 6.19633 11.4526H42.1544C45.3004 11.4526 47.8508 8.88887 47.8508 5.72632C47.8508 2.56376 45.3004 0 42.1544 0Z" fill="#FFA061"/>
<path d="M62.8037 18.6106H41.0865C37.9405 18.6106 35.3901 21.1744 35.3901 24.3369C35.3901 27.4995 37.9405 30.0632 41.0865 30.0632H62.8037C65.9497 30.0632 68.5001 27.4995 68.5001 24.3369C68.5001 21.1744 65.9497 18.6106 62.8037 18.6106Z" fill="#48C1FF"/>
<path d="M62.8037 37.5789H41.0865C37.9405 37.5789 35.3901 40.1426 35.3901 43.3052C35.3901 46.4677 37.9405 49.0315 41.0865 49.0315H62.8037C65.9497 49.0315 68.5001 46.4677 68.5001 43.3052C68.5001 40.1426 65.9497 37.5789 62.8037 37.5789Z" fill="#48C1FF"/>
<path d="M45.3586 56.5474H29.3377C26.1917 56.5474 23.6414 59.1111 23.6414 62.2737C23.6414 65.4362 26.1917 68 29.3377 68H45.3586C48.5046 68 51.055 65.4362 51.055 62.2737C51.055 59.1111 48.5046 56.5474 45.3586 56.5474Z" fill="#36E095"/>
<path d="M12.2487 37.5789H6.19634C3.05034 37.5789 0.5 40.1426 0.5 43.3052C0.5 46.4677 3.05034 49.0315 6.19634 49.0315H12.2487C15.3947 49.0315 17.945 46.4677 17.945 43.3052C17.945 40.1426 15.3947 37.5789 12.2487 37.5789Z" fill="#36E095"/>
<path d="M11.8927 24.3369C11.8927 21.1744 9.34233 18.6106 6.19634 18.6106C3.05034 18.6106 0.5 21.1744 0.5 24.3369C0.5 27.4995 3.05034 30.0632 6.19634 30.0632C9.34233 30.0632 11.8927 27.4995 11.8927 24.3369Z" fill="#6E7AFF"/>
<path d="M28.9818 24.3369C28.9818 21.1744 26.4314 18.6106 23.2854 18.6106C20.1394 18.6106 17.5891 21.1744 17.5891 24.3369C17.5891 27.4995 20.1394 30.0632 23.2854 30.0632C26.4314 30.0632 28.9818 27.4995 28.9818 24.3369Z" fill="#FE4763"/>
<path d="M32.5418 43.3052C32.5418 40.1426 29.9915 37.5789 26.8455 37.5789C23.6995 37.5789 21.1492 40.1426 21.1492 43.3052C21.1492 46.4677 23.6995 49.0315 26.8455 49.0315C29.9915 49.0315 32.5418 46.4677 32.5418 43.3052Z" fill="#FFA061"/>
<path d="M66.7198 5.72632C66.7198 2.56376 64.1695 0 61.0235 0C57.8775 0 55.3271 2.56376 55.3271 5.72632C55.3271 8.88887 57.8775 11.4526 61.0235 11.4526C64.1695 11.4526 66.7198 8.88887 66.7198 5.72632Z" fill="#6E7AFF"/>
<path d="M67.432 62.2737C67.432 59.1111 64.8816 56.5474 61.7356 56.5474C58.5896 56.5474 56.0393 59.1111 56.0393 62.2737C56.0393 65.4362 58.5896 68 61.7356 68C64.8816 68 67.432 65.4362 67.432 62.2737Z" fill="#6E7AFF"/>
</g>
<path d="M108.9 51.75C106.4 51.75 104.15 51.1833 102.15 50.05C100.183 48.9167 98.6333 47.35 97.5 45.35C96.3667 43.3167 95.8 40.9833 95.8 38.35C95.8 35.6833 96.3667 33.35 97.5 31.35C98.6333 29.35 100.183 27.8 102.15 26.7C104.15 25.5667 106.4 25 108.9 25C111.2 25 113.25 25.5167 115.05 26.55C116.883 27.5833 118.333 29.1 119.4 31.1C120.5 33.0667 121.05 35.4833 121.05 38.35C121.05 41.1833 120.517 43.6 119.45 45.6C118.383 47.6 116.933 49.1333 115.1 50.2C113.3 51.2333 111.233 51.75 108.9 51.75ZM109.15 48.6C111.017 48.6 112.683 48.1833 114.15 47.35C115.65 46.4833 116.817 45.2833 117.65 43.75C118.517 42.1833 118.95 40.3833 118.95 38.35C118.95 36.2833 118.517 34.4833 117.65 32.95C116.817 31.4167 115.65 30.2333 114.15 29.4C112.683 28.5333 111.017 28.1 109.15 28.1C107.317 28.1 105.667 28.5333 104.2 29.4C102.733 30.2333 101.567 31.4167 100.7 32.95C99.8333 34.4833 99.4 36.2833 99.4 38.35C99.4 40.3833 99.8333 42.1833 100.7 43.75C101.567 45.2833 102.733 46.4833 104.2 47.35C105.667 48.1833 107.317 48.6 109.15 48.6ZM119.05 51.5V43.6L119.4 38.3L118.9 33V14.4H122.45V51.5H119.05ZM143.487 51.75C140.753 51.75 138.353 51.1833 136.287 50.05C134.22 48.8833 132.603 47.3 131.437 45.3C130.27 43.2667 129.687 40.95 129.687 38.35C129.687 35.75 130.237 33.45 131.337 31.45C132.47 29.45 134.003 27.8833 135.937 26.75C137.903 25.5833 140.103 25 142.537 25C145.003 25 147.187 25.5667 149.087 26.7C151.02 27.8 152.537 29.3667 153.637 31.4C154.737 33.4 155.287 35.7167 155.287 38.35C155.287 38.5167 155.27 38.7 155.237 38.9C155.237 39.0667 155.237 39.25 155.237 39.45H132.387V36.8H153.337L151.937 37.85C151.937 35.95 151.52 34.2667 150.687 32.8C149.887 31.3 148.787 30.1333 147.387 29.3C145.987 28.4667 144.37 28.05 142.537 28.05C140.737 28.05 139.12 28.4667 137.687 29.3C136.253 30.1333 135.137 31.3 134.337 32.8C133.537 34.3 133.137 36.0167 133.137 37.95V38.5C133.137 40.5 133.57 42.2667 134.437 43.8C135.337 45.3 136.57 46.4833 138.137 47.35C139.737 48.1833 141.553 48.6 143.587 48.6C145.187 48.6 146.67 48.3167 148.037 47.75C149.437 47.1833 150.637 46.3167 151.637 45.15L153.637 47.45C152.47 48.85 151.003 49.9167 149.237 50.65C147.503 51.3833 145.587 51.75 143.487 51.75ZM168.774 51.5L157.124 25.25H160.824L171.524 49.6H169.774L180.624 25.25H184.124L172.424 51.5H168.774ZM189.874 51.5V16.5H204.124C207.857 16.5 211.124 17.25 213.924 18.75C216.757 20.2167 218.957 22.2667 220.524 24.9C222.09 27.5333 222.874 30.5667 222.874 34C222.874 37.4333 222.09 40.4667 220.524 43.1C218.957 45.7333 216.757 47.8 213.924 49.3C211.124 50.7667 207.857 51.5 204.124 51.5H189.874ZM193.574 48.3H203.924C207.024 48.3 209.707 47.7 211.974 46.5C214.274 45.2667 216.057 43.5833 217.324 41.45C218.59 39.2833 219.224 36.8 219.224 34C219.224 31.1667 218.59 28.6833 217.324 26.55C216.057 24.4167 214.274 22.75 211.974 21.55C209.707 20.3167 207.024 19.7 203.924 19.7H193.574V48.3ZM230.432 51.5V25.25H233.982V51.5H230.432ZM232.232 19.45C231.499 19.45 230.882 19.2 230.382 18.7C229.882 18.2 229.632 17.6 229.632 16.9C229.632 16.2 229.882 15.6167 230.382 15.15C230.882 14.65 231.499 14.4 232.232 14.4C232.966 14.4 233.582 14.6333 234.082 15.1C234.582 15.5667 234.832 16.15 234.832 16.85C234.832 17.5833 234.582 18.2 234.082 18.7C233.616 19.2 232.999 19.45 232.232 19.45ZM260.31 51.5V45.7L260.16 44.75V35.05C260.16 32.8167 259.527 31.1 258.26 29.9C257.027 28.7 255.177 28.1 252.71 28.1C251.01 28.1 249.393 28.3833 247.86 28.95C246.327 29.5167 245.027 30.2667 243.96 31.2L242.36 28.55C243.693 27.4167 245.293 26.55 247.16 25.95C249.027 25.3167 250.993 25 253.06 25C256.46 25 259.077 25.85 260.91 27.55C262.777 29.2167 263.71 31.7667 263.71 35.2V51.5H260.31ZM251.26 51.75C249.293 51.75 247.577 51.4333 246.11 50.8C244.677 50.1333 243.577 49.2333 242.81 48.1C242.043 46.9333 241.66 45.6 241.66 44.1C241.66 42.7333 241.977 41.5 242.61 40.4C243.277 39.2667 244.343 38.3667 245.81 37.7C247.31 37 249.31 36.65 251.81 36.65H260.86V39.3H251.91C249.377 39.3 247.61 39.75 246.61 40.65C245.643 41.55 245.16 42.6667 245.16 44C245.16 45.5 245.743 46.7 246.91 47.6C248.077 48.5 249.71 48.95 251.81 48.95C253.81 48.95 255.527 48.5 256.96 47.6C258.427 46.6667 259.493 45.3333 260.16 43.6L260.96 46.05C260.293 47.7833 259.127 49.1667 257.46 50.2C255.827 51.2333 253.76 51.75 251.26 51.75ZM273.352 51.5V25.25H276.752V32.4L276.402 31.15C277.136 29.15 278.369 27.6333 280.102 26.6C281.836 25.5333 283.986 25 286.552 25V28.45C286.419 28.45 286.286 28.45 286.152 28.45C286.019 28.4167 285.886 28.4 285.752 28.4C282.986 28.4 280.819 29.25 279.252 30.95C277.686 32.6167 276.902 35 276.902 38.1V51.5H273.352ZM294.353 61.45C293.12 61.45 291.936 61.25 290.803 60.85C289.703 60.45 288.753 59.85 287.953 59.05L289.603 56.4C290.27 57.0333 290.986 57.5167 291.753 57.85C292.553 58.2167 293.436 58.4 294.403 58.4C295.57 58.4 296.57 58.0667 297.403 57.4C298.27 56.7667 299.086 55.6333 299.853 54L301.553 50.15L301.953 49.6L312.753 25.25H316.253L303.103 54.65C302.37 56.35 301.553 57.7 300.653 58.7C299.786 59.7 298.836 60.4 297.803 60.8C296.77 61.2333 295.62 61.45 294.353 61.45ZM301.353 52.25L289.253 25.25H292.953L303.653 49.35L301.353 52.25Z" fill="black"/>
<defs>
<clipPath id="clip0_65_32">
<rect width="68" height="68" fill="white" transform="translate(0.5)"/>
</clipPath>
</defs>
</svg>
