<svg width="20" height="21" viewBox="0 0 20 21" fill="none" xmlns="http://www.w3.org/2000/svg">
<path d="M13.492 2.16675H6.50866C3.47533 2.16675 1.66699 3.97508 1.66699 7.00841V13.9834C1.66699 17.0251 3.47533 18.8334 6.50866 18.8334H13.4837C16.517 18.8334 18.3253 17.0251 18.3253 13.9917V7.00841C18.3337 3.97508 16.5253 2.16675 13.492 2.16675ZM13.9837 8.58342L9.25866 13.3084C9.14147 13.4255 8.98262 13.4912 8.81699 13.4912C8.65137 13.4912 8.49251 13.4255 8.37533 13.3084L6.01699 10.9501C5.90076 10.8325 5.83557 10.6738 5.83557 10.5084C5.83557 10.3431 5.90076 10.1844 6.01699 10.0667C6.25866 9.82508 6.65866 9.82508 6.90033 10.0667L8.81699 11.9834L13.1003 7.70008C13.342 7.45842 13.742 7.45842 13.9837 7.70008C14.2253 7.94175 14.2253 8.33342 13.9837 8.58342Z" fill="black"/>
</svg>
