<svg width="218" height="48" viewBox="0 0 218 48" fill="none" xmlns="http://www.w3.org/2000/svg">
<g clip-path="url(#clip0_65_594)">
<path d="M29.4031 0H4.02094C1.80024 0 0 1.80971 0 4.04211C0 6.2745 1.80024 8.08421 4.02094 8.08421H29.4031C31.6238 8.08421 33.4241 6.2745 33.4241 4.04211C33.4241 1.80971 31.6238 0 29.4031 0Z" fill="#FFA061"/>
<path d="M43.9792 13.137H28.6494C26.4287 13.137 24.6284 14.9467 24.6284 17.1791C24.6284 19.4115 26.4287 21.2212 28.6494 21.2212H43.9792C46.1999 21.2212 48.0001 19.4115 48.0001 17.1791C48.0001 14.9467 46.1999 13.137 43.9792 13.137Z" fill="#48C1FF"/>
<path d="M43.9792 26.5264H28.6494C26.4287 26.5264 24.6284 28.3361 24.6284 30.5685C24.6284 32.8009 26.4287 34.6106 28.6494 34.6106H43.9792C46.1999 34.6106 48.0001 32.8009 48.0001 30.5685C48.0001 28.3361 46.1999 26.5264 43.9792 26.5264Z" fill="#48C1FF"/>
<path d="M31.6648 39.9158H20.3559C18.1352 39.9158 16.335 41.7255 16.335 43.9579C16.335 46.1903 18.1352 48 20.3559 48H31.6648C33.8855 48 35.6857 46.1903 35.6857 43.9579C35.6857 41.7255 33.8855 39.9158 31.6648 39.9158Z" fill="#36E095"/>
<path d="M8.29319 26.5264H4.02094C1.80024 26.5264 0 28.3361 0 30.5685C0 32.8009 1.80024 34.6106 4.02094 34.6106H8.29319C10.5139 34.6106 12.3141 32.8009 12.3141 30.5685C12.3141 28.3361 10.5139 26.5264 8.29319 26.5264Z" fill="#36E095"/>
<path d="M8.04189 17.1791C8.04189 14.9467 6.24165 13.137 4.02094 13.137C1.80024 13.137 0 14.9467 0 17.1791C0 19.4115 1.80024 21.2212 4.02094 21.2212C6.24165 21.2212 8.04189 19.4115 8.04189 17.1791Z" fill="#6E7AFF"/>
<path d="M20.1049 17.1791C20.1049 14.9467 18.3046 13.137 16.0839 13.137C13.8632 13.137 12.063 14.9467 12.063 17.1791C12.063 19.4115 13.8632 21.2212 16.0839 21.2212C18.3046 21.2212 20.1049 19.4115 20.1049 17.1791Z" fill="#FE4763"/>
<path d="M22.6176 30.5685C22.6176 28.3361 20.8173 26.5264 18.5966 26.5264C16.3759 26.5264 14.5757 28.3361 14.5757 30.5685C14.5757 32.8009 16.3759 34.6106 18.5966 34.6106C20.8173 34.6106 22.6176 32.8009 22.6176 30.5685Z" fill="#FFA061"/>
<path d="M46.7435 4.04211C46.7435 1.80971 44.9433 0 42.7226 0C40.5019 0 38.7017 1.80971 38.7017 4.04211C38.7017 6.2745 40.5019 8.08421 42.7226 8.08421C44.9433 8.08421 46.7435 6.2745 46.7435 4.04211Z" fill="#6E7AFF"/>
<path d="M47.246 43.9579C47.246 41.7255 45.4457 39.9158 43.225 39.9158C41.0043 39.9158 39.2041 41.7255 39.2041 43.9579C39.2041 46.1903 41.0043 48 43.225 48C45.4457 48 47.246 46.1903 47.246 43.9579Z" fill="#6E7AFF"/>
</g>
<path d="M76.472 36.67C74.772 36.67 73.242 36.2847 71.882 35.514C70.5447 34.7433 69.4907 33.678 68.72 32.318C67.9493 30.9353 67.564 29.3487 67.564 27.558C67.564 25.7447 67.9493 24.158 68.72 22.798C69.4907 21.438 70.5447 20.384 71.882 19.636C73.242 18.8653 74.772 18.48 76.472 18.48C78.036 18.48 79.43 18.8313 80.654 19.534C81.9007 20.2367 82.8867 21.268 83.612 22.628C84.36 23.9653 84.734 25.6087 84.734 27.558C84.734 29.4847 84.3713 31.128 83.646 32.488C82.9207 33.848 81.9347 34.8907 80.688 35.616C79.464 36.3187 78.0587 36.67 76.472 36.67ZM76.642 34.528C77.9113 34.528 79.0447 34.2447 80.042 33.678C81.062 33.0887 81.8553 32.2727 82.422 31.23C83.0113 30.1647 83.306 28.9407 83.306 27.558C83.306 26.1527 83.0113 24.9287 82.422 23.886C81.8553 22.8433 81.062 22.0387 80.042 21.472C79.0447 20.8827 77.9113 20.588 76.642 20.588C75.3953 20.588 74.2733 20.8827 73.276 21.472C72.2787 22.0387 71.4853 22.8433 70.896 23.886C70.3067 24.9287 70.012 26.1527 70.012 27.558C70.012 28.9407 70.3067 30.1647 70.896 31.23C71.4853 32.2727 72.2787 33.0887 73.276 33.678C74.2733 34.2447 75.3953 34.528 76.642 34.528ZM83.374 36.5V31.128L83.612 27.524L83.272 23.92V11.272H85.686V36.5H83.374ZM99.991 36.67C98.1323 36.67 96.5003 36.2847 95.095 35.514C93.6896 34.7207 92.5903 33.644 91.797 32.284C91.0036 30.9013 90.607 29.326 90.607 27.558C90.607 25.79 90.981 24.226 91.729 22.866C92.4996 21.506 93.5423 20.4407 94.857 19.67C96.1943 18.8767 97.6903 18.48 99.345 18.48C101.022 18.48 102.507 18.8653 103.799 19.636C105.114 20.384 106.145 21.4493 106.893 22.832C107.641 24.192 108.015 25.7673 108.015 27.558C108.015 27.6713 108.004 27.796 107.981 27.932C107.981 28.0453 107.981 28.17 107.981 28.306H92.443V26.504H106.689L105.737 27.218C105.737 25.926 105.454 24.7813 104.887 23.784C104.343 22.764 103.595 21.9707 102.643 21.404C101.691 20.8373 100.592 20.554 99.345 20.554C98.121 20.554 97.0216 20.8373 96.047 21.404C95.0723 21.9707 94.313 22.764 93.769 23.784C93.225 24.804 92.953 25.9713 92.953 27.286V27.66C92.953 29.02 93.2476 30.2213 93.837 31.264C94.449 32.284 95.2876 33.0887 96.353 33.678C97.441 34.2447 98.6763 34.528 100.059 34.528C101.147 34.528 102.156 34.3353 103.085 33.95C104.037 33.5647 104.853 32.9753 105.533 32.182L106.893 33.746C106.1 34.698 105.102 35.4233 103.901 35.922C102.722 36.4207 101.419 36.67 99.991 36.67ZM117.186 36.5L109.264 18.65H111.78L119.056 35.208H117.866L125.244 18.65H127.624L119.668 36.5H117.186ZM131.534 36.5V12.7H141.224C143.763 12.7 145.984 13.21 147.888 14.23C149.815 15.2273 151.311 16.6213 152.376 18.412C153.442 20.2027 153.974 22.2653 153.974 24.6C153.974 26.9347 153.442 28.9973 152.376 30.788C151.311 32.5787 149.815 33.984 147.888 35.004C145.984 36.0013 143.763 36.5 141.224 36.5H131.534ZM134.05 34.324H141.088C143.196 34.324 145.021 33.916 146.562 33.1C148.126 32.2613 149.339 31.1167 150.2 29.666C151.062 28.1927 151.492 26.504 151.492 24.6C151.492 22.6733 151.062 20.9847 150.2 19.534C149.339 18.0833 148.126 16.95 146.562 16.134C145.021 15.2953 143.196 14.876 141.088 14.876H134.05V34.324ZM159.114 36.5V18.65H161.528V36.5H159.114ZM160.338 14.706C159.839 14.706 159.42 14.536 159.08 14.196C158.74 13.856 158.57 13.448 158.57 12.972C158.57 12.496 158.74 12.0993 159.08 11.782C159.42 11.442 159.839 11.272 160.338 11.272C160.837 11.272 161.256 11.4307 161.596 11.748C161.936 12.0653 162.106 12.462 162.106 12.938C162.106 13.4367 161.936 13.856 161.596 14.196C161.279 14.536 160.859 14.706 160.338 14.706ZM179.431 36.5V32.556L179.329 31.91V25.314C179.329 23.7953 178.898 22.628 178.037 21.812C177.198 20.996 175.94 20.588 174.263 20.588C173.107 20.588 172.008 20.7807 170.965 21.166C169.922 21.5513 169.038 22.0613 168.313 22.696L167.225 20.894C168.132 20.1233 169.22 19.534 170.489 19.126C171.758 18.6953 173.096 18.48 174.501 18.48C176.813 18.48 178.592 19.058 179.839 20.214C181.108 21.3473 181.743 23.0813 181.743 25.416V36.5H179.431ZM173.277 36.67C171.94 36.67 170.772 36.4547 169.775 36.024C168.8 35.5707 168.052 34.9587 167.531 34.188C167.01 33.3947 166.749 32.488 166.749 31.468C166.749 30.5387 166.964 29.7 167.395 28.952C167.848 28.1813 168.574 27.5693 169.571 27.116C170.591 26.64 171.951 26.402 173.651 26.402H179.805V28.204H173.719C171.996 28.204 170.795 28.51 170.115 29.122C169.458 29.734 169.129 30.4933 169.129 31.4C169.129 32.42 169.526 33.236 170.319 33.848C171.112 34.46 172.223 34.766 173.651 34.766C175.011 34.766 176.178 34.46 177.153 33.848C178.15 33.2133 178.876 32.3067 179.329 31.128L179.873 32.794C179.42 33.9727 178.626 34.9133 177.493 35.616C176.382 36.3187 174.977 36.67 173.277 36.67ZM188.3 36.5V18.65H190.612V23.512L190.374 22.662C190.872 21.302 191.711 20.2707 192.89 19.568C194.068 18.8427 195.53 18.48 197.276 18.48V20.826C197.185 20.826 197.094 20.826 197.004 20.826C196.913 20.8033 196.822 20.792 196.732 20.792C194.85 20.792 193.377 21.37 192.312 22.526C191.246 23.6593 190.714 25.28 190.714 27.388V36.5H188.3ZM202.58 43.266C201.741 43.266 200.937 43.13 200.166 42.858C199.418 42.586 198.772 42.178 198.228 41.634L199.35 39.832C199.803 40.2627 200.291 40.5913 200.812 40.818C201.356 41.0673 201.957 41.192 202.614 41.192C203.407 41.192 204.087 40.9653 204.654 40.512C205.243 40.0813 205.799 39.3107 206.32 38.2L207.476 35.582L207.748 35.208L215.092 18.65H217.472L208.53 38.642C208.031 39.798 207.476 40.716 206.864 41.396C206.275 42.076 205.629 42.552 204.926 42.824C204.223 43.1187 203.441 43.266 202.58 43.266ZM207.34 37.01L199.112 18.65H201.628L208.904 35.038L207.34 37.01Z" fill="black"/>
<defs>
<clipPath id="clip0_65_594">
<rect width="48" height="48" fill="white"/>
</clipPath>
</defs>
</svg>
