<svg width="142" height="70" viewBox="0 0 142 70" fill="none" xmlns="http://www.w3.org/2000/svg">
<g filter="url(#filter0_d_225_2)">
<rect x="10" y="9" width="121.333" height="50" rx="16" fill="url(#paint0_linear_225_2)"/>
<rect x="10" y="9" width="121.333" height="50" rx="16" fill="black"/>
<path d="M34.944 40.128C34.0907 40.128 33.2747 40 32.496 39.744C31.7173 39.4773 31.104 39.136 30.656 38.72L31.248 37.472C31.6747 37.8453 32.2187 38.1547 32.88 38.4C33.5413 38.6453 34.2293 38.768 34.944 38.768C35.5947 38.768 36.1227 38.6933 36.528 38.544C36.9333 38.3947 37.232 38.192 37.424 37.936C37.616 37.6693 37.712 37.3707 37.712 37.04C37.712 36.656 37.584 36.3467 37.328 36.112C37.0827 35.8773 36.7573 35.6907 36.352 35.552C35.9573 35.4027 35.52 35.2747 35.04 35.168C34.56 35.0613 34.0747 34.9387 33.584 34.8C33.104 34.6507 32.6613 34.464 32.256 34.24C31.8613 34.016 31.5413 33.7173 31.296 33.344C31.0507 32.96 30.928 32.4693 30.928 31.872C30.928 31.296 31.0773 30.768 31.376 30.288C31.6853 29.7973 32.1547 29.408 32.784 29.12C33.424 28.8213 34.2347 28.672 35.216 28.672C35.8667 28.672 36.512 28.7573 37.152 28.928C37.792 29.0987 38.3467 29.344 38.816 29.664L38.288 30.944C37.808 30.624 37.3013 30.3947 36.768 30.256C36.2347 30.1067 35.7173 30.032 35.216 30.032C34.5867 30.032 34.0693 30.112 33.664 30.272C33.2587 30.432 32.96 30.6453 32.768 30.912C32.5867 31.1787 32.496 31.4773 32.496 31.808C32.496 32.2027 32.6187 32.5173 32.864 32.752C33.12 32.9867 33.4453 33.1733 33.84 33.312C34.2453 33.4507 34.688 33.5787 35.168 33.696C35.648 33.8027 36.128 33.9253 36.608 34.064C37.0987 34.2027 37.5413 34.384 37.936 34.608C38.3413 34.832 38.6667 35.1307 38.912 35.504C39.1573 35.8773 39.28 36.3573 39.28 36.944C39.28 37.5093 39.1253 38.0373 38.816 38.528C38.5067 39.008 38.0267 39.3973 37.376 39.696C36.736 39.984 35.9253 40.128 34.944 40.128ZM44.9615 40.096C44.2362 40.096 43.5962 39.9627 43.0415 39.696C42.4975 39.4293 42.0708 39.024 41.7615 38.48C41.4628 37.9253 41.3135 37.232 41.3135 36.4V31.52H42.8495V36.224C42.8495 37.056 43.0468 37.68 43.4415 38.096C43.8468 38.512 44.4122 38.72 45.1375 38.72C45.6708 38.72 46.1348 38.6133 46.5295 38.4C46.9242 38.176 47.2282 37.856 47.4415 37.44C47.6548 37.0133 47.7615 36.5013 47.7615 35.904V31.52H49.2975V40H47.8415V37.712L48.0815 38.32C47.8042 38.8853 47.3882 39.3227 46.8335 39.632C46.2788 39.9413 45.6548 40.096 44.9615 40.096ZM56.7176 40.096C55.9923 40.096 55.3363 39.936 54.7496 39.616C54.1736 39.2853 53.715 38.8 53.3736 38.16C53.043 37.52 52.8776 36.72 52.8776 35.76C52.8776 34.8 53.0483 34 53.3896 33.36C53.7416 32.72 54.2056 32.24 54.7816 31.92C55.3683 31.6 56.0136 31.44 56.7176 31.44C57.5496 31.44 58.2856 31.6213 58.9256 31.984C59.5656 32.3467 60.0723 32.8533 60.4456 33.504C60.819 34.144 61.0056 34.896 61.0056 35.76C61.0056 36.624 60.819 37.3813 60.4456 38.032C60.0723 38.6827 59.5656 39.1893 58.9256 39.552C58.2856 39.9147 57.5496 40.096 56.7176 40.096ZM52.2216 40V28.128H53.7576V33.776L53.5976 35.744L53.6936 37.712V40H52.2216ZM56.5896 38.752C57.1336 38.752 57.619 38.6293 58.0456 38.384C58.483 38.1387 58.8243 37.792 59.0696 37.344C59.3256 36.8853 59.4536 36.3573 59.4536 35.76C59.4536 35.152 59.3256 34.6293 59.0696 34.192C58.8243 33.744 58.483 33.3973 58.0456 33.152C57.619 32.9067 57.1336 32.784 56.5896 32.784C56.0563 32.784 55.571 32.9067 55.1336 33.152C54.707 33.3973 54.3656 33.744 54.1096 34.192C53.8643 34.6293 53.7416 35.152 53.7416 35.76C53.7416 36.3573 53.8643 36.8853 54.1096 37.344C54.3656 37.792 54.707 38.1387 55.1336 38.384C55.571 38.6293 56.0563 38.752 56.5896 38.752ZM73.7359 31.44C74.4185 31.44 75.0212 31.5733 75.5439 31.84C76.0665 32.1067 76.4719 32.512 76.7599 33.056C77.0585 33.6 77.2079 34.288 77.2079 35.12V40H75.6719V35.296C75.6719 34.4747 75.4799 33.856 75.0959 33.44C74.7119 33.024 74.1732 32.816 73.4799 32.816C72.9679 32.816 72.5199 32.9227 72.1359 33.136C71.7519 33.3493 71.4532 33.664 71.2399 34.08C71.0372 34.496 70.9359 35.0133 70.9359 35.632V40H69.3999V35.296C69.3999 34.4747 69.2079 33.856 68.8239 33.44C68.4505 33.024 67.9119 32.816 67.2079 32.816C66.7065 32.816 66.2639 32.9227 65.8799 33.136C65.4959 33.3493 65.1972 33.664 64.9839 34.08C64.7705 34.496 64.6639 35.0133 64.6639 35.632V40H63.1279V31.52H64.5999V33.776L64.3599 33.2C64.6265 32.6453 65.0372 32.2133 65.5919 31.904C66.1465 31.5947 66.7919 31.44 67.5279 31.44C68.3385 31.44 69.0372 31.6427 69.6239 32.048C70.2105 32.4427 70.5945 33.0453 70.7759 33.856L70.1519 33.6C70.4079 32.9493 70.8559 32.4267 71.4959 32.032C72.1359 31.6373 72.8825 31.44 73.7359 31.44ZM80.0341 40V31.52H81.5701V40H80.0341ZM80.8021 29.888C80.5035 29.888 80.2528 29.792 80.0501 29.6C79.8581 29.408 79.7621 29.1733 79.7621 28.896C79.7621 28.608 79.8581 28.368 80.0501 28.176C80.2528 27.984 80.5035 27.888 80.8021 27.888C81.1008 27.888 81.3461 27.984 81.5381 28.176C81.7408 28.3573 81.8421 28.5867 81.8421 28.864C81.8421 29.152 81.7461 29.3973 81.5541 29.6C81.3621 29.792 81.1115 29.888 80.8021 29.888ZM87.4149 40.096C86.5615 40.096 85.9002 39.8667 85.4309 39.408C84.9615 38.9493 84.7269 38.2933 84.7269 37.44V29.664H86.2629V37.376C86.2629 37.8347 86.3749 38.1867 86.5989 38.432C86.8335 38.6773 87.1642 38.8 87.5909 38.8C88.0709 38.8 88.4709 38.6667 88.7909 38.4L89.2709 39.504C89.0362 39.7067 88.7535 39.856 88.4229 39.952C88.1029 40.048 87.7669 40.096 87.4149 40.096ZM83.2869 32.784V31.52H88.6949V32.784H83.2869Z" fill="white"/>
<path d="M100 33.9999L103.773 37.7732L111.333 30.2266" stroke="white" stroke-width="2" stroke-linecap="round" stroke-linejoin="round"/>
</g>
<defs>
<filter id="filter0_d_225_2" x="0" y="0" width="141.333" height="70" filterUnits="userSpaceOnUse" color-interpolation-filters="sRGB">
<feFlood flood-opacity="0" result="BackgroundImageFix"/>
<feColorMatrix in="SourceAlpha" type="matrix" values="0 0 0 0 0 0 0 0 0 0 0 0 0 0 0 0 0 0 127 0" result="hardAlpha"/>
<feOffset dy="1"/>
<feGaussianBlur stdDeviation="5"/>
<feComposite in2="hardAlpha" operator="out"/>
<feColorMatrix type="matrix" values="0 0 0 0 0 0 0 0 0 0 0 0 0 0 0 0 0 0 0.1 0"/>
<feBlend mode="normal" in2="BackgroundImageFix" result="effect1_dropShadow_225_2"/>
<feBlend mode="normal" in="SourceGraphic" in2="effect1_dropShadow_225_2" result="shape"/>
</filter>
<linearGradient id="paint0_linear_225_2" x1="10" y1="59" x2="132.697" y2="12.6063" gradientUnits="userSpaceOnUse">
<stop stop-color="#36E095"/>
<stop offset="0.385417" stop-color="#48C1FF"/>
<stop offset="0.65625" stop-color="#D31975"/>
<stop offset="1" stop-color="#FFA061"/>
</linearGradient>
</defs>
</svg>
