<svg width="20" height="21" viewBox="0 0 20 21" fill="none" xmlns="http://www.w3.org/2000/svg">
<path d="M10.0004 4.37341C6.01706 4.37341 2.77539 7.61508 2.77539 11.5984C2.77539 15.5817 6.01706 18.8317 10.0004 18.8317C13.9837 18.8317 17.2254 15.5901 17.2254 11.6067C17.2254 7.62341 13.9837 4.37341 10.0004 4.37341ZM10.6254 11.3317C10.6254 11.6734 10.3421 11.9567 10.0004 11.9567C9.65872 11.9567 9.37539 11.6734 9.37539 11.3317V7.16508C9.37539 6.82341 9.65872 6.54008 10.0004 6.54008C10.3421 6.54008 10.6254 6.82341 10.6254 7.16508V11.3317ZM12.4087 3.37508H7.59206C7.25872 3.37508 6.99206 3.10841 6.99206 2.77508C6.99206 2.44175 7.25872 2.16675 7.59206 2.16675H12.4087C12.7421 2.16675 13.0087 2.43341 13.0087 2.76675C13.0087 3.10008 12.7421 3.37508 12.4087 3.37508Z" fill="black"/>
</svg>
