<svg width="67" height="67" viewBox="0 0 67 67" fill="none" xmlns="http://www.w3.org/2000/svg">
<path d="M33.4997 63.5104C16.9451 63.5104 3.48926 50.0546 3.48926 33.5C3.48926 16.9454 16.9451 3.48959 33.4997 3.48959C50.0543 3.48959 63.5101 16.9454 63.5101 33.5C63.5101 50.0546 50.0543 63.5104 33.4997 63.5104ZM33.4997 7.67709C19.2622 7.67709 7.67676 19.2625 7.67676 33.5C7.67676 47.7375 19.2622 59.3229 33.4997 59.3229C47.7372 59.3229 59.3226 47.7375 59.3226 33.5C59.3226 19.2625 47.7372 7.67709 33.4997 7.67709Z" fill="black"/>
<path d="M43.8572 44.4768C43.4807 44.4836 43.111 44.3765 42.7964 44.1697L34.1422 39.0052C31.9926 37.721 30.4014 34.9014 30.4014 32.4168V20.971C30.4014 19.8264 31.3505 18.8772 32.4951 18.8772C33.6397 18.8772 34.5889 19.8264 34.5889 20.971V32.4168C34.5889 33.4218 35.4264 34.9014 36.2918 35.4039L44.946 40.5685C45.951 41.1547 46.258 42.4389 45.6718 43.4439C45.482 43.7561 45.2158 44.0148 44.8983 44.1955C44.5808 44.3762 44.2225 44.473 43.8572 44.4768Z" fill="black"/>
</svg>
